<svg width="29" height="36" viewBox="0 0 29 36" fill="none" xmlns="http://www.w3.org/2000/svg">
<path d="M14.9462 0C5.13077 0 0 6.24615 0 13.1615C0 16.5077 1.78462 19.8538 4.68462 21.6385C5.57692 22.0846 5.35385 21.6385 6.02308 18.9615C6.02308 18.7385 6.02308 18.5154 5.8 18.2923C1.78462 13.3846 5.13077 3.79231 14.5 3.79231C28.1077 3.79231 25.4308 22.5308 16.9538 22.5308C15.1692 22.7538 13.6077 21.4154 13.6077 19.6308V18.7385C14.5 16.2846 15.1692 14.0538 15.3923 11.6C15.3923 6.91538 8.47692 7.58461 8.47692 13.8308C8.47692 14.9462 8.7 16.0615 9.14615 16.9538C9.14615 16.9538 6.91538 26.1 6.46923 27.6615C6.02308 30.3385 6.24615 33.0154 6.69231 35.4692C6.46923 35.6923 6.69231 35.6923 6.69231 35.6923H6.91538C8.47692 33.4615 9.81538 31.2308 10.7077 28.7769C10.9308 27.6615 12.0462 23.6462 12.0462 23.6462C13.1615 25.2077 15.1692 26.1 17.1769 26.1C24.0923 26.1 29 20.0769 29 12.7154C29 5.35385 22.7538 0 14.9462 0Z" fill="white"/>
</svg>
