<svg width="29" height="29" viewBox="0 0 29 29" fill="none" xmlns="http://www.w3.org/2000/svg">
<path d="M11.907 23.814C5.31236 23.814 0 18.5017 0 11.907C0 5.31236 5.31236 0 11.907 0C18.5017 0 23.814 5.31236 23.814 11.907C23.814 18.5017 18.5017 23.814 11.907 23.814ZM11.907 1.83185C6.31988 1.83185 1.83185 6.31988 1.83185 11.907C1.83185 17.4942 6.31988 21.9822 11.907 21.9822C17.4942 21.9822 21.9822 17.4942 21.9822 11.907C21.9822 6.31988 17.4942 1.83185 11.907 1.83185Z" fill="white"/>
<path d="M20.775 19.479L29 27.704L27.7049 28.9991L19.4799 20.7741L20.775 19.479Z" fill="white"/>
</svg>
