<svg width="30" height="30" viewBox="0 0 30 30" fill="none" xmlns="http://www.w3.org/2000/svg">
<path d="M23.0143 17.4H23.5785C24.7503 17.4003 25.8816 17.7877 26.76 18.4894C27.6383 19.1911 28.2032 20.1587 28.3485 21.2106L28.9753 25.7404C29.0316 26.1485 28.9914 26.5627 28.8573 26.9557C28.7231 27.3486 28.4982 27.7113 28.1973 28.0195C27.8964 28.3278 27.5264 28.5746 27.112 28.7437C26.6976 28.9127 26.2482 29.0001 25.7936 29H4.2064C3.7518 29.0001 3.30238 28.9127 2.88797 28.7437C2.47355 28.5746 2.10362 28.3278 1.80273 28.0195C1.50183 27.7113 1.27685 27.3486 1.14272 26.9557C1.00859 26.5627 0.968371 26.1485 1.02474 25.7404L1.64985 21.2106C1.79523 20.1582 2.36058 19.1902 3.23961 18.4884C4.11864 17.7867 5.25078 17.3996 6.42314 17.4H6.98574" stroke="white" stroke-width="2" stroke-linecap="round" stroke-linejoin="round"/>
<circle cx="15" cy="8" r="7" stroke="white" stroke-width="2"/>
</svg>
