<svg width="30" height="30" viewBox="0 0 30 30" fill="none" xmlns="http://www.w3.org/2000/svg">
<path d="M23.0143 17.4H23.5785C24.7503 17.4003 25.8816 17.7877 26.76 18.4894C27.6383 19.1911 28.2032 20.1587 28.3485 21.2106L28.9753 25.7404C29.0316 26.1485 28.9914 26.5627 28.8573 26.9557C28.7231 27.3486 28.4982 27.7113 28.1973 28.0195C27.8964 28.3278 27.5264 28.5746 27.112 28.7437C26.6976 28.9127 26.2482 29.0001 25.7936 29H4.2064C3.7518 29.0001 3.30238 28.9127 2.88797 28.7437C2.47355 28.5746 2.10362 28.3278 1.80273 28.0195C1.50183 27.7113 1.27685 27.3486 1.14272 26.9557C1.00859 26.5627 0.968371 26.1485 1.02474 25.7404L1.64985 21.2106C1.79523 20.1582 2.36058 19.1902 3.23961 18.4884C4.11864 17.7867 5.25078 17.3996 6.42314 17.4H6.98574" stroke="white" stroke-width="2" stroke-linecap="round" stroke-linejoin="round"/>
<path d="M21.8694 19H22.353C23.3574 19.0002 24.3271 19.2674 25.08 19.7513C25.8329 20.2352 26.3171 20.9026 26.4416 21.628L26.9788 24.752C27.0271 25.0334 26.9926 25.3191 26.8777 25.5901C26.7627 25.8611 26.5699 26.1112 26.3119 26.3238C26.054 26.5364 25.737 26.7066 25.3817 26.8232C25.0265 26.9398 24.6413 27.0001 24.2517 27H5.74834C5.35869 27.0001 4.97347 26.9398 4.61826 26.8232C4.26305 26.7066 3.94596 26.5364 3.68805 26.3238C3.43014 26.1112 3.2373 25.8611 3.12233 25.5901C3.00736 25.3191 2.97289 25.0334 3.02121 24.752L3.55702 21.628C3.68162 20.9022 4.16621 20.2346 4.91967 19.7506C5.67312 19.2667 6.64353 18.9997 7.64841 19H8.13064" fill="white"/>
<circle cx="15" cy="8" r="7" stroke="white" stroke-width="2"/>
<circle cx="15" cy="8" r="5" fill="white"/>
</svg>
