<svg width="29" height="29" viewBox="0 0 29 29" fill="none" xmlns="http://www.w3.org/2000/svg">
<path d="M14.5 0C6.48996 0 0 6.48996 0 14.5C0 22.51 6.48996 29 14.5 29C22.51 29 29 22.51 29 14.5C29 6.48996 22.51 0 14.5 0ZM14.5 2.41667C16.0886 2.41027 17.6627 2.71845 19.1316 3.32343C20.6005 3.92841 21.9351 4.81822 23.0585 5.94154C24.1818 7.06486 25.0716 8.39945 25.6766 9.86836C26.2815 11.3373 26.5897 12.9114 26.5833 14.5C26.5897 16.0886 26.2815 17.6627 25.6766 19.1316C25.0716 20.6005 24.1818 21.9351 23.0585 23.0585C21.9351 24.1818 20.6005 25.0716 19.1316 25.6766C17.6627 26.2815 16.0886 26.5897 14.5 26.5833C12.9114 26.5897 11.3373 26.2815 9.86836 25.6766C8.39945 25.0716 7.06486 24.1818 5.94154 23.0585C4.81822 21.9351 3.92841 20.6005 3.32343 19.1316C2.71845 17.6627 2.41027 16.0886 2.41667 14.5C2.41027 12.9114 2.71845 11.3373 3.32343 9.86836C3.92841 8.39945 4.81822 7.06486 5.94154 5.94154C7.06486 4.81822 8.39945 3.92841 9.86836 3.32343C11.3373 2.71845 12.9114 2.41027 14.5 2.41667ZM12.5739 8.15625C10.2237 8.15625 8.17558 8.37375 6.23017 8.98758C5.71542 9.09029 5.28646 9.47817 5.28646 10.1959C5.28646 10.9125 5.81571 11.5456 6.53225 11.4405C6.83917 11.4405 7.047 11.3281 7.25 11.3281C8.88729 10.9173 10.7336 10.724 12.5739 10.724C16.1518 10.724 19.8239 11.5215 22.278 12.9521C22.585 13.056 22.6889 13.1781 22.9958 13.1781C23.7135 13.1781 24.2138 12.65 24.3177 11.9323C24.3177 11.3185 24.0108 10.927 23.6 10.724C20.532 8.98638 16.4587 8.15625 12.5739 8.15625ZM12.2344 12.65C10.0872 12.65 8.55742 12.957 7.02283 13.3678C6.51413 13.5696 6.23017 13.8874 6.23017 14.5C6.23017 15.0099 6.63617 15.5198 7.25 15.5198C7.45783 15.5198 7.54725 15.5102 7.85417 15.4063C8.97792 15.0993 10.521 14.9157 12.1595 14.9157C15.5331 14.9157 18.4694 15.7373 20.6178 17.0677C20.8196 17.1716 21.0286 17.2562 21.3343 17.2562C21.9482 17.2562 22.3542 16.7366 22.3542 16.124C22.3542 15.7132 22.1608 15.3072 21.75 15.1042C19.0917 13.4669 15.7132 12.65 12.2344 12.65ZM12.5739 17.0677C10.8375 17.0677 9.19058 17.261 7.55208 17.6719C7.14125 17.7758 6.83433 18.0682 6.83433 18.5781C6.83433 18.989 7.15575 19.4095 7.66567 19.4095C7.76958 19.4095 8.06683 19.2959 8.26983 19.2959C9.64422 18.9754 11.0503 18.8104 12.4615 18.8041C15.0148 18.8041 17.3505 19.4179 19.2959 20.5417C19.5037 20.6456 19.7345 20.7302 19.9375 20.7302C20.3483 20.7302 20.7398 20.4233 20.8438 20.0136C20.8438 19.4989 20.6214 19.3092 20.3145 19.1074C18.0634 17.7758 15.434 17.0677 12.5739 17.0677Z" fill="white"/>
</svg>
